<?xml version="1.0" encoding="utf-8"?>
<svg viewBox="182.788 45.101 441.418 105.612" width="441.418px" height="105.612px" xmlns="http://www.w3.org/2000/svg">
  <path d="M 190.198 112.672 L 190.198 63.672 L 194.468 63.672 L 216.868 101.892 L 214.628 101.892 L 236.818 63.672 L 241.088 63.672 L 241.088 112.672 L 236.118 112.672 L 236.118 71.442 L 237.308 71.442 L 216.868 106.442 L 214.418 106.442 L 193.838 71.442 L 195.168 71.442 L 195.168 112.672 Z" style="fill: rgb(255, 255, 255); white-space: pre;"/>
  <path d="M 271.588 113.022 Q 265.848 113.022 261.508 110.607 Q 257.168 108.192 254.718 103.957 Q 252.268 99.722 252.268 94.262 Q 252.268 88.802 254.613 84.602 Q 256.958 80.402 261.053 77.987 Q 265.148 75.572 270.258 75.572 Q 275.438 75.572 279.463 77.917 Q 283.488 80.262 285.798 84.497 Q 288.108 88.732 288.108 94.262 Q 288.108 94.612 288.073 94.997 Q 288.038 95.382 288.038 95.802 L 256.048 95.802 L 256.048 92.092 L 285.378 92.092 L 283.418 93.562 Q 283.418 89.572 281.703 86.457 Q 279.988 83.342 277.048 81.592 Q 274.108 79.842 270.258 79.842 Q 266.478 79.842 263.468 81.592 Q 260.458 83.342 258.778 86.492 Q 257.098 89.642 257.098 93.702 L 257.098 94.472 Q 257.098 98.672 258.953 101.857 Q 260.808 105.042 264.133 106.827 Q 267.458 108.612 271.728 108.612 Q 275.088 108.612 277.993 107.422 Q 280.898 106.232 282.998 103.782 L 285.798 107.002 Q 283.348 109.942 279.673 111.482 Q 275.998 113.022 271.588 113.022 Z" style="fill: rgb(255, 255, 255); white-space: pre;"/>
  <path d="M 312.89 113.022 Q 307.64 113.022 303.475 110.642 Q 299.31 108.262 296.93 104.027 Q 294.55 99.792 294.55 94.262 Q 294.55 88.662 296.93 84.462 Q 299.31 80.262 303.475 77.917 Q 307.64 75.572 312.89 75.572 Q 317.72 75.572 321.535 77.742 Q 325.35 79.912 327.625 84.077 Q 329.9 88.242 329.9 94.262 Q 329.9 100.212 327.66 104.412 Q 325.42 108.612 321.605 110.817 Q 317.79 113.022 312.89 113.022 Z M 313.24 108.612 Q 317.16 108.612 320.275 106.827 Q 323.39 105.042 325.175 101.787 Q 326.96 98.532 326.96 94.262 Q 326.96 89.922 325.175 86.702 Q 323.39 83.482 320.275 81.697 Q 317.16 79.912 313.24 79.912 Q 309.39 79.912 306.31 81.697 Q 303.23 83.482 301.41 86.702 Q 299.59 89.922 299.59 94.262 Q 299.59 98.532 301.41 101.787 Q 303.23 105.042 306.31 106.827 Q 309.39 108.612 313.24 108.612 Z M 327.1 112.672 L 327.1 101.612 L 327.59 94.192 L 326.89 86.772 L 326.89 60.732 L 331.86 60.732 L 331.86 112.672 Z" style="fill: rgb(255, 255, 255); white-space: pre;"/>
  <path d="M 345.714 112.672 L 345.714 75.922 L 350.684 75.922 L 350.684 112.672 Z M 348.234 67.802 Q 346.694 67.802 345.644 66.752 Q 344.594 65.702 344.594 64.232 Q 344.594 62.762 345.644 61.747 Q 346.694 60.732 348.234 60.732 Q 349.774 60.732 350.824 61.712 Q 351.874 62.692 351.874 64.162 Q 351.874 65.702 350.859 66.752 Q 349.844 67.802 348.234 67.802 Z" style="fill: rgb(255, 255, 255); white-space: pre;"/>
  <path d="M 387.573 112.672 L 387.573 104.552 L 387.363 103.222 L 387.363 89.642 Q 387.363 84.952 384.738 82.432 Q 382.113 79.912 376.933 79.912 Q 373.363 79.912 370.143 81.102 Q 366.923 82.292 364.683 84.252 L 362.443 80.542 Q 365.243 78.162 369.163 76.867 Q 373.083 75.572 377.423 75.572 Q 384.563 75.572 388.448 79.107 Q 392.333 82.642 392.333 89.852 L 392.333 112.672 Z M 374.903 113.022 Q 370.773 113.022 367.728 111.657 Q 364.683 110.292 363.073 107.877 Q 361.463 105.462 361.463 102.312 Q 361.463 99.442 362.828 97.097 Q 364.193 94.752 367.308 93.317 Q 370.423 91.882 375.673 91.882 L 388.343 91.882 L 388.343 95.592 L 375.813 95.592 Q 370.493 95.592 368.428 97.482 Q 366.363 99.372 366.363 102.172 Q 366.363 105.322 368.813 107.212 Q 371.263 109.102 375.673 109.102 Q 379.873 109.102 382.918 107.177 Q 385.963 105.252 387.363 101.612 L 388.483 105.042 Q 387.083 108.682 383.618 110.852 Q 380.153 113.022 374.903 113.022 Z" style="fill: rgb(255, 255, 255); white-space: pre;"/>
  <path d="M 446.5 113.092 Q 440.97 113.092 436.28 111.237 Q 431.59 109.382 428.16 106.022 Q 424.73 102.662 422.805 98.112 Q 420.88 93.562 420.88 88.172 Q 420.88 82.782 422.805 78.232 Q 424.73 73.682 428.195 70.322 Q 431.66 66.962 436.35 65.107 Q 441.04 63.252 446.57 63.252 Q 451.89 63.252 456.58 65.037 Q 461.27 66.822 464.49 70.392 L 461.2 73.682 Q 458.19 70.602 454.55 69.237 Q 450.91 67.872 446.71 67.872 Q 442.3 67.872 438.52 69.377 Q 434.74 70.882 431.94 73.647 Q 429.14 76.412 427.565 80.087 Q 425.99 83.762 425.99 88.172 Q 425.99 92.582 427.565 96.257 Q 429.14 99.932 431.94 102.697 Q 434.74 105.462 438.52 106.967 Q 442.3 108.472 446.71 108.472 Q 450.91 108.472 454.55 107.072 Q 458.19 105.672 461.2 102.592 L 464.49 105.882 Q 461.27 109.452 456.58 111.272 Q 451.89 113.092 446.5 113.092 Z" style="fill: rgb(255, 255, 255); white-space: pre;"/>
  <path d="M 474.499 112.672 L 474.499 60.732 L 479.469 60.732 L 479.469 112.672 Z" style="fill: rgb(255, 255, 255); white-space: pre;"/>
  <path d="M 508.308 113.022 Q 502.988 113.022 498.753 110.607 Q 494.518 108.192 492.068 103.957 Q 489.618 99.722 489.618 94.262 Q 489.618 88.732 492.068 84.532 Q 494.518 80.332 498.718 77.952 Q 502.918 75.572 508.308 75.572 Q 513.768 75.572 518.003 77.952 Q 522.238 80.332 524.653 84.532 Q 527.068 88.732 527.068 94.262 Q 527.068 99.722 524.653 103.957 Q 522.238 108.192 517.968 110.607 Q 513.698 113.022 508.308 113.022 Z M 508.308 108.612 Q 512.298 108.612 515.378 106.827 Q 518.458 105.042 520.243 101.787 Q 522.028 98.532 522.028 94.262 Q 522.028 89.922 520.243 86.702 Q 518.458 83.482 515.378 81.697 Q 512.298 79.912 508.378 79.912 Q 504.458 79.912 501.378 81.697 Q 498.298 83.482 496.478 86.702 Q 494.658 89.922 494.658 94.262 Q 494.658 98.532 496.478 101.787 Q 498.298 105.042 501.378 106.827 Q 504.458 108.612 508.308 108.612 Z" style="fill: rgb(255, 255, 255); white-space: pre;"/>
  <path d="M 552.394 113.022 Q 547.704 113.022 544.204 111.272 Q 540.704 109.522 538.779 106.022 Q 536.854 102.522 536.854 97.272 L 536.854 75.922 L 541.824 75.922 L 541.824 96.712 Q 541.824 102.592 544.729 105.567 Q 547.634 108.542 552.884 108.542 Q 556.734 108.542 559.569 106.967 Q 562.404 105.392 563.909 102.382 Q 565.414 99.372 565.414 95.172 L 565.414 75.922 L 570.384 75.922 L 570.384 112.672 L 565.624 112.672 L 565.624 102.592 L 566.394 104.412 Q 564.644 108.472 560.969 110.747 Q 557.294 113.022 552.394 113.022 Z" style="fill: rgb(255, 255, 255); white-space: pre;"/>
  <path d="M 598.866 113.022 Q 593.616 113.022 589.451 110.642 Q 585.286 108.262 582.906 104.027 Q 580.526 99.792 580.526 94.262 Q 580.526 88.662 582.906 84.462 Q 585.286 80.262 589.451 77.917 Q 593.616 75.572 598.866 75.572 Q 603.696 75.572 607.511 77.742 Q 611.326 79.912 613.601 84.077 Q 615.876 88.242 615.876 94.262 Q 615.876 100.212 613.636 104.412 Q 611.396 108.612 607.581 110.817 Q 603.766 113.022 598.866 113.022 Z M 599.216 108.612 Q 603.136 108.612 606.251 106.827 Q 609.366 105.042 611.151 101.787 Q 612.936 98.532 612.936 94.262 Q 612.936 89.922 611.151 86.702 Q 609.366 83.482 606.251 81.697 Q 603.136 79.912 599.216 79.912 Q 595.366 79.912 592.286 81.697 Q 589.206 83.482 587.386 86.702 Q 585.566 89.922 585.566 94.262 Q 585.566 98.532 587.386 101.787 Q 589.206 105.042 592.286 106.827 Q 595.366 108.612 599.216 108.612 Z M 613.076 112.672 L 613.076 101.612 L 613.566 94.192 L 612.866 86.772 L 612.866 60.732 L 617.836 60.732 L 617.836 112.672 Z" style="fill: rgb(255, 255, 255); white-space: pre;"/>
  <path d="M 253.305 143.571 L 247.563 128.346 L 249.535 128.346 L 254.755 142.469 L 253.856 142.469 L 259.221 128.346 L 260.99 128.346 L 266.297 142.469 L 265.398 142.469 L 270.705 128.346 L 272.59 128.346 L 266.819 143.571 L 264.876 143.571 L 259.772 130.289 L 260.381 130.289 L 255.248 143.571 Z" style="fill: rgb(255, 255, 255); white-space: pre;"/>
  <path d="M 281.717 143.716 Q 279.339 143.716 277.541 142.715 Q 275.743 141.715 274.728 139.96 Q 273.713 138.206 273.713 135.944 Q 273.713 133.682 274.684 131.942 Q 275.656 130.202 277.352 129.201 Q 279.049 128.201 281.166 128.201 Q 283.312 128.201 284.979 129.172 Q 286.647 130.144 287.604 131.898 Q 288.561 133.653 288.561 135.944 Q 288.561 136.089 288.546 136.248 Q 288.532 136.408 288.532 136.582 L 275.279 136.582 L 275.279 135.045 L 287.43 135.045 L 286.618 135.654 Q 286.618 134.001 285.907 132.71 Q 285.197 131.42 283.979 130.695 Q 282.761 129.97 281.166 129.97 Q 279.6 129.97 278.353 130.695 Q 277.106 131.42 276.41 132.725 Q 275.714 134.03 275.714 135.712 L 275.714 136.031 Q 275.714 137.771 276.482 139.09 Q 277.251 140.41 278.628 141.149 Q 280.006 141.889 281.775 141.889 Q 283.167 141.889 284.37 141.396 Q 285.574 140.903 286.444 139.888 L 287.604 141.222 Q 286.589 142.44 285.066 143.078 Q 283.544 143.716 281.717 143.716 Z" style="fill: rgb(255, 255, 255); white-space: pre;"/>
  <path d="M 306.405 143.716 Q 304.23 143.716 302.504 142.73 Q 300.779 141.744 299.793 139.989 Q 298.807 138.235 298.807 135.944 Q 298.807 133.624 299.793 131.884 Q 300.779 130.144 302.504 129.172 Q 304.23 128.201 306.405 128.201 Q 308.406 128.201 309.986 129.1 Q 311.567 129.999 312.509 131.724 Q 313.452 133.45 313.452 135.944 Q 313.452 138.409 312.524 140.149 Q 311.596 141.889 310.015 142.802 Q 308.435 143.716 306.405 143.716 Z M 306.55 141.889 Q 308.174 141.889 309.464 141.149 Q 310.755 140.41 311.494 139.061 Q 312.234 137.713 312.234 135.944 Q 312.234 134.146 311.494 132.812 Q 310.755 131.478 309.464 130.738 Q 308.174 129.999 306.55 129.999 Q 304.955 129.999 303.679 130.738 Q 302.403 131.478 301.649 132.812 Q 300.895 134.146 300.895 135.944 Q 300.895 137.713 301.649 139.061 Q 302.403 140.41 303.679 141.149 Q 304.955 141.889 306.55 141.889 Z M 312.292 143.571 L 312.292 138.989 L 312.495 135.915 L 312.205 132.841 L 312.205 122.053 L 314.264 122.053 L 314.264 143.571 Z" style="fill: rgb(255, 255, 255); white-space: pre;"/>
  <path d="M 326.468 143.716 Q 324.09 143.716 322.292 142.715 Q 320.494 141.715 319.479 139.96 Q 318.464 138.206 318.464 135.944 Q 318.464 133.682 319.435 131.942 Q 320.407 130.202 322.103 129.201 Q 323.8 128.201 325.917 128.201 Q 328.063 128.201 329.73 129.172 Q 331.398 130.144 332.355 131.898 Q 333.312 133.653 333.312 135.944 Q 333.312 136.089 333.297 136.248 Q 333.283 136.408 333.283 136.582 L 320.03 136.582 L 320.03 135.045 L 332.181 135.045 L 331.369 135.654 Q 331.369 134.001 330.658 132.71 Q 329.948 131.42 328.73 130.695 Q 327.512 129.97 325.917 129.97 Q 324.351 129.97 323.104 130.695 Q 321.857 131.42 321.161 132.725 Q 320.465 134.03 320.465 135.712 L 320.465 136.031 Q 320.465 137.771 321.233 139.09 Q 322.002 140.41 323.379 141.149 Q 324.757 141.889 326.526 141.889 Q 327.918 141.889 329.121 141.396 Q 330.325 140.903 331.195 139.888 L 332.355 141.222 Q 331.34 142.44 329.817 143.078 Q 328.295 143.716 326.468 143.716 Z" style="fill: rgb(255, 255, 255); white-space: pre;"/>
  <path d="M 337.517 143.571 L 337.517 122.053 L 339.576 122.053 L 339.576 143.571 Z" style="fill: rgb(255, 255, 255); white-space: pre;"/>
  <path d="M 345.314 143.571 L 345.314 128.346 L 347.373 128.346 L 347.373 143.571 Z M 346.358 124.982 Q 345.72 124.982 345.285 124.547 Q 344.85 124.112 344.85 123.503 Q 344.85 122.894 345.285 122.473 Q 345.72 122.053 346.358 122.053 Q 346.996 122.053 347.431 122.459 Q 347.866 122.865 347.866 123.474 Q 347.866 124.112 347.445 124.547 Q 347.025 124.982 346.358 124.982 Z" style="fill: rgb(255, 255, 255); white-space: pre;"/>
  <path d="M 357.026 143.571 L 350.269 128.346 L 352.415 128.346 L 358.621 142.469 L 357.606 142.469 L 363.899 128.346 L 365.929 128.346 L 359.143 143.571 Z" style="fill: rgb(255, 255, 255); white-space: pre;"/>
  <path d="M 374.86 143.716 Q 372.482 143.716 370.684 142.715 Q 368.886 141.715 367.871 139.96 Q 366.856 138.206 366.856 135.944 Q 366.856 133.682 367.827 131.942 Q 368.799 130.202 370.495 129.201 Q 372.192 128.201 374.309 128.201 Q 376.455 128.201 378.122 129.172 Q 379.79 130.144 380.747 131.898 Q 381.704 133.653 381.704 135.944 Q 381.704 136.089 381.689 136.248 Q 381.675 136.408 381.675 136.582 L 368.422 136.582 L 368.422 135.045 L 380.573 135.045 L 379.761 135.654 Q 379.761 134.001 379.05 132.71 Q 378.34 131.42 377.122 130.695 Q 375.904 129.97 374.309 129.97 Q 372.743 129.97 371.496 130.695 Q 370.249 131.42 369.553 132.725 Q 368.857 134.03 368.857 135.712 L 368.857 136.031 Q 368.857 137.771 369.625 139.09 Q 370.394 140.41 371.771 141.149 Q 373.149 141.889 374.918 141.889 Q 376.31 141.889 377.513 141.396 Q 378.717 140.903 379.587 139.888 L 380.747 141.222 Q 379.732 142.44 378.209 143.078 Q 376.687 143.716 374.86 143.716 Z" style="fill: rgb(255, 255, 255); white-space: pre;"/>
  <path d="M 385.893 143.571 L 385.893 128.346 L 387.865 128.346 L 387.865 132.493 L 387.662 131.768 Q 388.3 130.028 389.808 129.114 Q 391.316 128.201 393.549 128.201 L 393.549 130.202 Q 393.433 130.202 393.317 130.187 Q 393.201 130.173 393.085 130.173 Q 390.678 130.173 389.315 131.637 Q 387.952 133.102 387.952 135.799 L 387.952 143.571 Z" style="fill: rgb(255, 255, 255); white-space: pre;"/>
  <path d="M 411.595 143.716 Q 409.217 143.716 407.419 142.715 Q 405.621 141.715 404.606 139.96 Q 403.591 138.206 403.591 135.944 Q 403.591 133.682 404.563 131.942 Q 405.534 130.202 407.231 129.201 Q 408.927 128.201 411.044 128.201 Q 413.19 128.201 414.858 129.172 Q 416.525 130.144 417.482 131.898 Q 418.439 133.653 418.439 135.944 Q 418.439 136.089 418.425 136.248 Q 418.41 136.408 418.41 136.582 L 405.157 136.582 L 405.157 135.045 L 417.308 135.045 L 416.496 135.654 Q 416.496 134.001 415.786 132.71 Q 415.075 131.42 413.857 130.695 Q 412.639 129.97 411.044 129.97 Q 409.478 129.97 408.231 130.695 Q 406.984 131.42 406.288 132.725 Q 405.592 134.03 405.592 135.712 L 405.592 136.031 Q 405.592 137.771 406.361 139.09 Q 407.129 140.41 408.507 141.149 Q 409.884 141.889 411.653 141.889 Q 413.045 141.889 414.249 141.396 Q 415.452 140.903 416.322 139.888 L 417.482 141.222 Q 416.467 142.44 414.945 143.078 Q 413.422 143.716 411.595 143.716 Z" style="fill: rgb(255, 255, 255); white-space: pre;"/>
  <path d="M 426.262 143.571 L 419.505 128.346 L 421.651 128.346 L 427.857 142.469 L 426.842 142.469 L 433.135 128.346 L 435.165 128.346 L 428.379 143.571 Z" style="fill: rgb(255, 255, 255); white-space: pre;"/>
  <path d="M 444.08 143.716 Q 441.702 143.716 439.904 142.715 Q 438.106 141.715 437.091 139.96 Q 436.076 138.206 436.076 135.944 Q 436.076 133.682 437.048 131.942 Q 438.019 130.202 439.716 129.201 Q 441.412 128.201 443.529 128.201 Q 445.675 128.201 447.343 129.172 Q 449.01 130.144 449.967 131.898 Q 450.924 133.653 450.924 135.944 Q 450.924 136.089 450.91 136.248 Q 450.895 136.408 450.895 136.582 L 437.642 136.582 L 437.642 135.045 L 449.793 135.045 L 448.981 135.654 Q 448.981 134.001 448.271 132.71 Q 447.56 131.42 446.342 130.695 Q 445.124 129.97 443.529 129.97 Q 441.963 129.97 440.716 130.695 Q 439.469 131.42 438.773 132.725 Q 438.077 134.03 438.077 135.712 L 438.077 136.031 Q 438.077 137.771 438.846 139.09 Q 439.614 140.41 440.992 141.149 Q 442.369 141.889 444.138 141.889 Q 445.53 141.889 446.734 141.396 Q 447.937 140.903 448.807 139.888 L 449.967 141.222 Q 448.952 142.44 447.43 143.078 Q 445.907 143.716 444.08 143.716 Z" style="fill: rgb(255, 255, 255); white-space: pre;"/>
  <path d="M 455.129 143.571 L 455.129 128.346 L 457.101 128.346 L 457.101 132.493 L 456.898 131.768 Q 457.536 130.028 459.044 129.114 Q 460.552 128.201 462.785 128.201 L 462.785 130.202 Q 462.669 130.202 462.553 130.187 Q 462.437 130.173 462.321 130.173 Q 459.914 130.173 458.551 131.637 Q 457.188 133.102 457.188 135.799 L 457.188 143.571 Z" style="fill: rgb(255, 255, 255); white-space: pre;"/>
  <path d="M 467.308 149.342 Q 466.235 149.342 465.264 148.994 Q 464.292 148.646 463.596 147.95 L 464.553 146.413 Q 465.133 146.964 465.815 147.268 Q 466.496 147.573 467.337 147.573 Q 468.352 147.573 469.092 147.007 Q 469.831 146.442 470.498 145.021 L 471.484 142.788 L 471.716 142.469 L 477.98 128.346 L 480.01 128.346 L 472.383 145.398 Q 471.745 146.877 470.977 147.747 Q 470.208 148.617 469.309 148.979 Q 468.41 149.342 467.308 149.342 Z M 471.368 144.006 L 464.35 128.346 L 466.496 128.346 L 472.702 142.324 Z" style="fill: rgb(255, 255, 255); white-space: pre;"/>
  <path d="M 488.147 143.716 Q 486.001 143.716 484.841 142.556 Q 483.681 141.396 483.681 139.279 L 483.681 124.982 L 485.74 124.982 L 485.74 139.163 Q 485.74 140.497 486.422 141.222 Q 487.103 141.947 488.379 141.947 Q 489.742 141.947 490.641 141.164 L 491.366 142.643 Q 490.757 143.194 489.902 143.455 Q 489.046 143.716 488.147 143.716 Z M 480.955 130.057 L 480.955 128.346 L 490.38 128.346 L 490.38 130.057 Z" style="fill: rgb(255, 255, 255); white-space: pre;"/>
  <path d="M 502.887 128.201 Q 504.743 128.201 506.149 128.911 Q 507.556 129.622 508.353 131.072 Q 509.151 132.522 509.151 134.726 L 509.151 143.571 L 507.092 143.571 L 507.092 134.929 Q 507.092 132.522 505.888 131.289 Q 504.685 130.057 502.51 130.057 Q 500.886 130.057 499.682 130.709 Q 498.479 131.362 497.826 132.594 Q 497.174 133.827 497.174 135.567 L 497.174 143.571 L 495.115 143.571 L 495.115 122.053 L 497.174 122.053 L 497.174 132.522 L 496.768 131.739 Q 497.493 130.086 499.088 129.143 Q 500.683 128.201 502.887 128.201 Z" style="fill: rgb(255, 255, 255); white-space: pre;"/>
  <path d="M 514.709 143.571 L 514.709 128.346 L 516.768 128.346 L 516.768 143.571 Z M 515.753 124.982 Q 515.115 124.982 514.68 124.547 Q 514.245 124.112 514.245 123.503 Q 514.245 122.894 514.68 122.473 Q 515.115 122.053 515.753 122.053 Q 516.391 122.053 516.826 122.459 Q 517.261 122.865 517.261 123.474 Q 517.261 124.112 516.841 124.547 Q 516.42 124.982 515.753 124.982 Z" style="fill: rgb(255, 255, 255); white-space: pre;"/>
  <path d="M 530.278 128.201 Q 532.134 128.201 533.541 128.911 Q 534.947 129.622 535.745 131.072 Q 536.542 132.522 536.542 134.726 L 536.542 143.571 L 534.483 143.571 L 534.483 134.929 Q 534.483 132.522 533.28 131.289 Q 532.076 130.057 529.901 130.057 Q 528.277 130.057 527.074 130.709 Q 525.87 131.362 525.218 132.594 Q 524.565 133.827 524.565 135.567 L 524.565 143.571 L 522.506 143.571 L 522.506 128.346 L 524.478 128.346 L 524.478 132.522 L 524.159 131.739 Q 524.884 130.086 526.479 129.143 Q 528.074 128.201 530.278 128.201 Z" style="fill: rgb(255, 255, 255); white-space: pre;"/>
  <path d="M 548.596 149.342 Q 546.508 149.342 544.594 148.733 Q 542.68 148.124 541.491 146.993 L 542.535 145.427 Q 543.608 146.384 545.189 146.949 Q 546.769 147.515 548.538 147.515 Q 551.438 147.515 552.801 146.166 Q 554.164 144.818 554.164 141.976 L 554.164 138.177 L 554.454 135.567 L 554.251 132.957 L 554.251 128.346 L 556.223 128.346 L 556.223 141.715 Q 556.223 145.659 554.295 147.5 Q 552.366 149.342 548.596 149.342 Z M 548.219 142.991 Q 546.044 142.991 544.304 142.048 Q 542.564 141.106 541.564 139.424 Q 540.563 137.742 540.563 135.567 Q 540.563 133.392 541.564 131.724 Q 542.564 130.057 544.304 129.129 Q 546.044 128.201 548.219 128.201 Q 550.249 128.201 551.873 129.042 Q 553.497 129.883 554.454 131.536 Q 555.411 133.189 555.411 135.567 Q 555.411 137.945 554.454 139.598 Q 553.497 141.251 551.873 142.121 Q 550.249 142.991 548.219 142.991 Z M 548.422 141.164 Q 550.104 141.164 551.409 140.453 Q 552.714 139.743 553.468 138.481 Q 554.222 137.22 554.222 135.567 Q 554.222 133.914 553.468 132.667 Q 552.714 131.42 551.409 130.709 Q 550.104 129.999 548.422 129.999 Q 546.769 129.999 545.45 130.709 Q 544.13 131.42 543.391 132.667 Q 542.651 133.914 542.651 135.567 Q 542.651 137.22 543.391 138.481 Q 544.13 139.743 545.45 140.453 Q 546.769 141.164 548.422 141.164 Z" style="fill: rgb(255, 255, 255); white-space: pre;"/>
</svg>